<?xml version="1.0" standalone="no"?>
<!DOCTYPE svg PUBLIC "-//W3C//DTD SVG 20010904//EN"
 "http://www.w3.org/TR/2001/REC-SVG-20010904/DTD/svg10.dtd">
<svg version="1.0" xmlns="http://www.w3.org/2000/svg"
 width="100.000000pt" height="100.000000pt" viewBox="0 0 100.000000 100.000000"
 preserveAspectRatio="xMidYMid meet">
<metadata>
Created by potrace 1.14, written by Peter Selinger 2001-2017
</metadata>
<g transform="translate(0.000000,100.000000) scale(0.100000,-0.100000)"
fill="#000000" stroke="none">
<path d="M594 940 c-22 -22 -42 -40 -46 -40 -4 0 -29 14 -55 30 -47 30 -69 38
-58 21 3 -5 0 -11 -7 -14 -7 -2 -5 -3 5 -1 11 1 38 -7 60 -19 l41 -21 -34 -9
c-80 -20 -94 -19 -108 4 -12 18 -12 23 0 31 10 7 10 9 -2 7 -8 -1 -22 -1 -30
0 -13 1 -13 2 0 11 12 7 10 9 -8 7 -26 -2 -27 -5 -7 -31 8 -11 15 -27 15 -37
0 -9 10 -23 21 -31 12 -8 20 -20 18 -27 -4 -11 -9 -10 -22 3 -12 13 -17 14
-17 4 0 -7 9 -19 20 -26 17 -10 25 -9 47 5 26 18 27 17 19 -2 -8 -22 -26 -110
-26 -131 0 -7 6 -11 13 -8 8 3 11 17 9 39 -5 40 20 110 51 143 18 19 31 22 94
22 40 0 73 -3 73 -6 0 -3 -8 -13 -18 -22 -10 -10 -12 -13 -6 -9 17 11 40 -26
52 -83 12 -57 13 -158 1 -166 -5 -3 -9 -10 -9 -15 0 -6 4 -8 8 -5 4 2 8 -4 8
-14 0 -10 -5 -16 -10 -13 -6 4 -6 -1 -2 -13 4 -10 8 -23 9 -29 1 -5 6 -13 11
-16 12 -9 -3 -51 -17 -46 -7 2 -11 20 -9 43 2 29 0 35 -7 24 -8 -12 -10 -9 -7
11 1 13 6 30 10 37 12 19 -4 14 -35 -12 -19 -16 -36 -22 -50 -19 -20 5 -21 3
-17 -26 5 -32 4 -33 -29 -26 -42 8 -42 -5 0 -25 20 -9 34 -25 38 -40 9 -42 38
-98 64 -124 14 -14 25 -30 25 -36 0 -5 8 -10 18 -10 14 0 15 -2 2 -10 -10 -6
-11 -10 -2 -10 8 0 12 -23 12 -82 0 -106 6 -128 34 -128 l22 0 -12 98 c-18
133 -17 162 4 178 16 12 16 14 -7 38 -22 23 -22 26 -7 41 20 20 21 44 2 51 -8
3 -17 12 -20 20 -4 10 -2 12 6 8 8 -5 9 -2 5 9 -3 9 -2 19 4 22 5 4 6 12 2 18
-4 6 -8 50 -9 97 -4 124 -13 178 -35 222 -11 22 -17 38 -12 35 20 -12 54 -99
57 -144 2 -26 4 -53 5 -59 1 -14 47 -12 62 3 9 9 9 16 -1 27 -10 13 -9 17 4
22 22 8 20 31 -3 44 -30 16 -32 13 -28 -35 5 -62 -7 -44 -22 35 -7 36 -18 71
-23 78 -6 7 -8 15 -5 19 3 3 0 18 -8 33 -13 25 -13 34 -1 68 16 44 12 56 -13
42 -10 -5 -23 -5 -32 1 -24 15 -35 11 -75 -31z m73 -56 c-3 -3 -20 -1 -38 4
l-34 9 35 21 35 22 3 -26 c2 -14 1 -28 -1 -30z m-10 -426 c-3 -8 -6 -5 -6 6
-1 11 2 17 5 13 3 -3 4 -12 1 -19z"/>
<path d="M520 830 c-11 -11 -20 -28 -20 -37 1 -16 2 -15 12 2 6 11 18 28 26
38 21 24 7 22 -18 -3z"/>
<path d="M192 776 c-12 -24 -22 -48 -22 -55 0 -6 -12 -17 -26 -23 -20 -10 -32
-9 -57 4 -18 8 -44 20 -59 26 l-28 12 0 -190 c0 -186 0 -190 21 -190 11 0 32
-9 46 -20 33 -26 69 -26 76 -1 3 11 25 29 50 41 30 14 49 31 55 48 6 15 13 34
17 44 6 14 2 15 -34 6 -34 -9 -48 -7 -80 8 -25 12 -37 23 -33 30 4 6 48 35 98
63 l91 52 13 57 c7 31 19 69 26 84 14 27 13 27 -23 37 -21 6 -54 11 -74 11
-32 0 -38 -4 -57 -44z"/>
<path d="M535 769 c-4 -6 -5 -12 -2 -15 2 -3 7 2 10 11 7 17 1 20 -8 4z"/>
<path d="M516 725 c-9 -26 -7 -32 5 -12 6 10 9 21 6 23 -2 3 -7 -2 -11 -11z"/>
<path d="M950 716 c-37 -14 -130 -95 -130 -113 0 -6 -16 -21 -35 -33 -19 -12
-35 -23 -35 -24 0 -10 78 -3 96 9 13 8 41 15 63 15 22 0 52 5 66 12 23 10 25
16 25 80 0 37 -3 68 -7 67 -5 0 -24 -6 -43 -13z"/>
<path d="M551 687 c-14 -6 -27 -19 -29 -27 -4 -13 -3 -13 11 -2 13 11 15 11
11 -5 -6 -25 11 -47 30 -40 11 4 16 19 16 47 0 44 -3 46 -39 27z"/>
<path d="M668 693 c-2 -5 -1 -24 2 -43 l6 -35 5 43 c4 37 -3 56 -13 35z"/>
<path d="M495 680 c-3 -5 -1 -10 4 -10 6 0 11 5 11 10 0 6 -2 10 -4 10 -3 0
-8 -4 -11 -10z"/>
<path d="M292 590 c0 -14 2 -19 5 -12 2 6 2 18 0 25 -3 6 -5 1 -5 -13z"/>
<path d="M402 521 c-13 -98 -8 -164 14 -182 8 -7 16 -10 17 -8 17 25 41 87 39
99 -1 8 -7 44 -12 79 -5 40 -16 71 -27 83 -19 18 -20 17 -31 -71z"/>
<path d="M505 540 c3 -5 8 -10 11 -10 2 0 4 5 4 10 0 6 -5 10 -11 10 -5 0 -7
-4 -4 -10z"/>
<path d="M526 397 c3 -10 9 -15 12 -12 3 3 0 11 -7 18 -10 9 -11 8 -5 -6z"/>
<path d="M560 339 c0 -5 5 -7 10 -4 6 3 10 8 10 11 0 2 -4 4 -10 4 -5 0 -10
-5 -10 -11z"/>
<path d="M166 297 c3 -10 9 -15 12 -12 3 3 0 11 -7 18 -10 9 -11 8 -5 -6z"/>
<path d="M352 213 c-28 -106 -46 -202 -39 -210 4 -3 18 19 33 50 36 79 47 82
38 8 -6 -57 -5 -61 14 -61 20 0 24 6 36 63 9 39 30 29 37 -19 4 -26 7 -8 8 56
1 65 4 90 11 80 5 -8 10 -32 10 -52 0 -27 4 -38 15 -38 9 0 15 9 15 24 0 13 6
26 12 28 12 4 10 13 -20 69 -1 4 11 12 28 19 16 7 30 17 30 22 0 6 -8 7 -17 3
-42 -17 -88 -24 -92 -13 -8 24 -43 48 -69 48 -27 0 -30 -4 -50 -77z"/>
<path d="M241 221 c-12 -33 -37 -77 -55 -98 -19 -21 -32 -40 -29 -43 2 -3 11
4 19 14 8 11 14 16 14 12 0 -5 6 -3 14 3 16 13 72 159 64 166 -3 3 -15 -21
-27 -54z"/>
<path d="M750 267 c0 -13 33 -114 40 -120 13 -15 22 13 9 29 -9 11 -9 18 -1
26 17 17 15 22 -18 46 -16 13 -30 21 -30 19z"/>
</g>
</svg>
